<svg xmlns="http://www.w3.org/2000/svg" viewBox="0 0 437 395"><defs><style>.cls-1{fill:#c8c8c8;}.cls-2{fill:#ededed;}.cls-3{fill:#fff;}.cls-4{fill:#dc4844;}.cls-5{fill:#bf3a37;}.cls-6{fill:#ebebeb;}.cls-7{fill:#bababa;}.cls-8{fill:#e7e6e6;}.cls-9{fill:#dba27d;}.cls-10{fill:#f8c09d;}.cls-11{fill:#3e7b7d;}.cls-12{fill:#005757;}.cls-13{fill:#e7b26a;}.cls-14{fill:#2e79bd;}.cls-15{fill:#252a26;}.cls-16{fill:#fbf8ec;}.cls-17{fill:#282928;}</style></defs><title>Artboard 17</title><g id="Layer_1" data-name="Layer 1"><path class="cls-1" d="M416,271.19,166.36,313.86a25.43,25.43,0,0,1-29.26-20.71S112.66,40.4,134.94,36.59c0,0,262.19-26.06,266-3.77l35.75,209.11A25.42,25.42,0,0,1,416,271.19Z"/><path class="cls-2" d="M401.83,280.15,149.74,304.29a25.43,25.43,0,0,1-27.65-22.82s-5.72-253.86,16.79-256c0,0,263.39-6.63,265.54,15.88L424.64,252.5A25.42,25.42,0,0,1,401.83,280.15Z"/><path class="cls-2" d="M141.89,271.1l228,33.19a25.42,25.42,0,0,0,27.65-22.82s5.73-253.86-16.78-256c0,0-225.48-5.76-227.63,16.75L129.43,235C128.1,248.84,128,269.77,141.89,271.1Z"/><path class="cls-3" d="M171.28,12.64H364.11a55.55,55.55,0,0,1,55.55,55.55V286.94a0,0,0,0,1,0,0H115.73a0,0,0,0,1,0,0V68.19A55.55,55.55,0,0,1,171.28,12.64Z"/><path class="cls-4" d="M170.22,12.64H365.17a54.49,54.49,0,0,1,54.49,54.49v16.8a0,0,0,0,1,0,0H115.73a0,0,0,0,1,0,0V67.13a54.49,54.49,0,0,1,54.49-54.49Z"/><path class="cls-5" d="M165.19,33.38h0A6.2,6.2,0,0,1,159,27.2V12.64h12.37V27.2A6.2,6.2,0,0,1,165.19,33.38Z"/><path class="cls-5" d="M238.35,33.38h0a6.2,6.2,0,0,1-6.18-6.18V12.64h12.36V27.2A6.2,6.2,0,0,1,238.35,33.38Z"/><path class="cls-5" d="M306.78,33.38h0a6.2,6.2,0,0,1-6.18-6.18V12.64H313V27.2A6.2,6.2,0,0,1,306.78,33.38Z"/><path class="cls-5" d="M375.69,33.38h0a6.2,6.2,0,0,1-6.18-6.18V12.64c0-1,12.36.13,12.36.13V27.2A6.2,6.2,0,0,1,375.69,33.38Z"/><rect class="cls-6" x="229.73" y="3" width="12.37" height="28.3" rx="4.73" ry="4.73"/><rect class="cls-6" x="298.5" y="3" width="12.37" height="28.3" rx="4.73" ry="4.73"/><rect class="cls-6" x="367.27" y="3" width="12.37" height="28.3" rx="4.73" ry="4.73"/><path class="cls-7" d="M394,210.57l-71.89,75.6s2.72-13.31,2.74-21.67c0-5.32-1.07-9.95-1.44-17.58-1-21.4,11.37-26.85,17.22-30,9-4.86,23.69-1.26,32.56-1.84C377,214.82,391.22,214.19,394,210.57Z"/><path class="cls-8" d="M417.84,205.82l-95.71,80.35s4.76-15.28,5.69-25.08c.6-6.22-.22-11.77.17-20.75,1.09-25.18,16.76-30.15,24.22-33.2,11.45-4.67,29,1.22,39.82,1.56C396.61,208.84,414,209.74,417.84,205.82Z"/><rect class="cls-6" x="147.09" y="123.83" width="40.54" height="26.28"/><rect class="cls-6" x="147.09" y="170.61" width="40.54" height="26.28"/><rect class="cls-6" x="211.61" y="170.61" width="40.54" height="26.28"/><rect class="cls-6" x="276.13" y="170.61" width="40.54" height="26.28"/><rect class="cls-6" x="339.4" y="170.61" width="40.54" height="26.28"/><rect class="cls-6" x="147.09" y="217.39" width="40.54" height="26.28"/><rect class="cls-6" x="211.61" y="217.39" width="40.54" height="26.28"/><rect class="cls-6" x="276.13" y="217.39" width="40.54" height="26.28"/><rect class="cls-6" x="211.61" y="123.83" width="40.54" height="26.28"/><rect class="cls-6" x="276.13" y="123.83" width="40.54" height="26.28"/><rect class="cls-6" x="340.64" y="123.83" width="40.54" height="26.28"/><rect class="cls-6" x="156.55" y="3" width="12.37" height="28.3" rx="4.73" ry="4.73"/><path class="cls-4" d="M231,141.6c-.15.2-.09.66.32.59l.34-.76Z"/><path class="cls-4" d="M233.68,143.24a2.87,2.87,0,0,0,.73-.67,1.11,1.11,0,0,0,.18-1,2.14,2.14,0,0,1-.61.54,2.18,2.18,0,0,0-.64.66.5.5,0,0,1-.59-.59c-.08.09-.23,0-.4,0a.41.41,0,0,0-.47.24,1.32,1.32,0,0,0,1.88.28C233.89,142.91,233.72,143.1,233.68,143.24Z"/><path class="cls-4" d="M265.1,163.59l-.06-.25A.57.57,0,0,0,265.1,163.59Z"/><path class="cls-4" d="M271.53,185.86c0-.18-.1-.25-.17-.26C271.41,185.77,271.47,185.9,271.53,185.86Z"/><path class="cls-4" d="M270.6,189.8c0-.09,0-.16.06-.23C270.59,189.65,270.54,189.74,270.6,189.8Z"/><path class="cls-4" d="M265.1,163.59l.07.33.07.33C265.48,164.15,265.23,163.88,265.1,163.59Z"/><path class="cls-4" d="M239.43,142.31a1,1,0,0,0-.41.12,2.16,2.16,0,0,1,.36,0A.61.61,0,0,1,239.43,142.31Z"/><path class="cls-4" d="M257.92,156.18l-.14-.12a1.4,1.4,0,0,0-.33.13h.47Z"/><path class="cls-4" d="M251.59,151.53c.14.12.54-.41.76-.62a.65.65,0,0,1-.57.18A1.55,1.55,0,0,0,251.59,151.53Z"/><path class="cls-4" d="M240.56,145.37h-.12l-.12,0Z"/><path class="cls-4" d="M261.71,160.34a.59.59,0,0,0-.14.21A.6.6,0,0,0,261.71,160.34Z"/><path class="cls-4" d="M227,146.16c0,.05,0,.07,0,.12S227.06,146.16,227,146.16Z"/><path class="cls-4" d="M236.72,148.9l-.13,0c0,.13,0,.25,0,.37Z"/><path class="cls-4" d="M268.72,196.68l0,0C268.71,196.46,268.7,196.56,268.72,196.68Z"/><path class="cls-4" d="M217,219c.29.38-.05.49-.36.61s-.56.27-.09.74c0-.14.3-.32.52-.55S217.38,219.31,217,219Z"/><path class="cls-4" d="M239.62,142.45a2.17,2.17,0,0,1,.35.07A.74.74,0,0,0,239.62,142.45Z"/><path class="cls-4" d="M216.52,220.36h0l.1.1Z"/><path class="cls-4" d="M262.31,211.38a.93.93,0,0,0,.33,0A.53.53,0,0,0,262.31,211.38Z"/><path class="cls-4" d="M268.84,201.07l-.18.26A.94.94,0,0,0,268.84,201.07Z"/><path class="cls-4" d="M258.71,216.53c-.16.06-.26,0-.38.23l.11,0C258.44,216.66,258.5,216.56,258.71,216.53Z"/><path class="cls-4" d="M253.23,219.93a.89.89,0,0,0,.17.08l.17-.11Z"/><path class="cls-4" d="M205.41,150.5a1.92,1.92,0,0,1,.52.45C205.67,150.55,206.64,150,205.41,150.5Z"/><path class="cls-4" d="M239.35,142.68c.08-.16.16-.22.27-.23a1,1,0,0,0-.24,0A.26.26,0,0,0,239.35,142.68Z"/><path class="cls-4" d="M261.81,220.73l-.52.36-.36.23-.17.11A5.47,5.47,0,0,0,261.81,220.73Z"/><path class="cls-4" d="M180.08,192.46l-.15-.25A.28.28,0,0,0,180.08,192.46Z"/><path class="cls-4" d="M257.67,223.55a1.89,1.89,0,0,0-.84-.06.79.79,0,0,0-.05.22Z"/><path class="cls-4" d="M205.93,151h0Z"/><path class="cls-4" d="M212.93,147.41c-1.1.22-.33.94-.45,1.48-1.22.54-.74-.48-1.28-.82l-.27.18-.25.22c-.15.15-.29.31-.43.46a1.73,1.73,0,0,1-.82.63c-.08-.13-.21-.15-.12-.36a1.87,1.87,0,0,1-.68.52,9.39,9.39,0,0,1-.9.34l-.47.17-.44.23a2,2,0,0,0-.69.66.48.48,0,0,1-.2-.16,2.63,2.63,0,0,1,.53,1.08,2.32,2.32,0,0,0-.55.41c-.15.12-.29.16-.48-.07.29-.09.23-.32.31-.53l-.2.2-.2.21c-.71-.61.56-.51.36-1.07a7,7,0,0,0-.64.5l-.64.54a4.58,4.58,0,0,1-.62.45,1.47,1.47,0,0,1-.6.22c-.23-.34.16-.57.46-.75s.51-.31-.11-.45l.62-.08.62-.07c-1.31-.86.72-.17-.55-1.14a3.84,3.84,0,0,0-1.57.71,4.5,4.5,0,0,1-1.53.75c-.15.56.37.55.23,1.11a1.67,1.67,0,0,1-1.11.57,1.39,1.39,0,0,1-.46-.08,2.26,2.26,0,0,1-.43-.17c-.54-.25-1-.5-1.51.38-.06.33,0,.75-.09,1.09s-.32.6-1,.67l-.06-.49-.05-.49a1.23,1.23,0,0,0-.78,1.1.69.69,0,0,1-.2.46,1,1,0,0,1-.29.19,2.1,2.1,0,0,1-.5.16,1.14,1.14,0,0,1,.41-.62c.18-.17.32-.27.2-.25-.64,0-.73.19-.74.46s0,.59-.28.82l-.59-.57a9.81,9.81,0,0,0-1,.88c-.15.16-.31.32-.46.49l-.45.51-.44.52-.45.53c-.3.35-.61.69-.92,1-.08-.24,0-.64-.5-.54a20.55,20.55,0,0,1-2.58,2.62c-.94.83-1.92,1.64-2.81,2.44l0,.56c0,.14,0,.28,0,.39v.17c-.12.17-.47.14-.46-.12-.73.6.34.29.32.79-.24.45-.7.35-.7,0a25.86,25.86,0,0,1-.89,3,7.4,7.4,0,0,1-1.5,2.71l0-.19,0-.18a1.06,1.06,0,0,0-.2.77,2.29,2.29,0,0,0,.2.69c0,.11.08.21.11.32a1.12,1.12,0,0,1,.05.31.88.88,0,0,1-.32.66l-.05-.25a11.53,11.53,0,0,0-.66,2c-.14.7-.29,1.4-.39,2.08l-.09.5-.05.25,0,.25c-.05.32-.12.64-.2,1l-.12.46c0,.15-.09.29-.14.44a7.7,7.7,0,0,1-.36.83.66.66,0,0,1,.36.61,3.61,3.61,0,0,1,0,.46l0,.24c0,.08,0,.17,0,.25,0,.66,0,1.3.66,1.35a8.14,8.14,0,0,1-.38.9c-.11.22-.21.39-.29.58a3,3,0,0,0-.22.71,5.53,5.53,0,0,0-.1.55c0,.21,0,.46-.05.75s.26.49.54.69a1.88,1.88,0,0,1,.74.74l-.71.16.47.42.33.27.15.13-.36.35-.36.36.17.32a3.31,3.31,0,0,0,.18.31c0-.27.17-.65.38-.65a1.84,1.84,0,0,1,.17.38,2.07,2.07,0,0,1,.1.43,3.71,3.71,0,0,1,0,.88c-.06.56-.22,1-.39,1.1l.21.35c.12.22.31.49.49.77s.36.55.5.75l.23.33c-.29.06-.54-.3-.83-.56a2.19,2.19,0,0,1,.31.32.45.45,0,0,1,.11.2c0,.11-.07.17-.15.23s-.35.23.2.69c.09-.22.43-.09.58-.12a1.58,1.58,0,0,0,0,.65,4.92,4.92,0,0,0,.22.76,5.19,5.19,0,0,0,.38.79,7.68,7.68,0,0,0,.45.7l-.53,0a6.53,6.53,0,0,0,.31.66c.11.21.23.43.36.65s.26.43.4.64l.43.64c.14.22.3.43.45.64l.46.64c.31.43.64.85.93,1.3a.6.6,0,0,1,1-.65l-.48.64c.62.05-.14-.68.81-.36.38.67-.4.94-.87.71l.78.62c-.15.18-.38.07-.65.2.3,0,.41.47.56.91a2.11,2.11,0,0,0,.3.6.67.67,0,0,0,.57.23l-.14.19a15.3,15.3,0,0,0,1.81,1.85l.82.72.21.18.22.2c.15.13.31.26.47.41a.59.59,0,0,1,.7-.11,2.37,2.37,0,0,0,.91.18c.19.24.38.52.58.79s.41.55.64.84l.16.21.18.2.37.4.41.37a5.3,5.3,0,0,0,.45.34c1.05.37.58-.27,1.19-.31-.3.54,1,1.35.09,1.26a19.88,19.88,0,0,0,1.85,1c.29.14.61.26,1,.41.19.07.39.15.62.22l.75.25c-.09-.34-.28-.57-.05-.68.4.12.68.68.49.91h-.13a3.57,3.57,0,0,1,1,.3c.15.08.3.16.44.25s.3.18.44.28c.29.2.57.44.85.67s.56.48.83.72c1.11.94,2.24,1.8,3.42,1.57l-.13,0,.34,0,.76.05,1.09,0c.43.21.26.27,0,.35s-.47.18-.2.48a5,5,0,0,1,1.59.1,6.65,6.65,0,0,1,1.26.42c.39.15.77.31,1.17.43a3.74,3.74,0,0,0,1.32.12,2.12,2.12,0,0,0,1.21,1.08,5.65,5.65,0,0,0,.88.26c.31.06.64.12,1,.16l1,.12c.33,0,.66.09,1,.15a3.65,3.65,0,0,1,1.62.68l0-.43c.56-.32.56.34.91.49,0-.33-.48-.46-.14-.63a37.63,37.63,0,0,1,6.4,1c2.15.45,4.33.94,6.49,1.19.79.07,1-.47,1.3-.89s.61-.74,1.6-.25l-.57.78a21.17,21.17,0,0,1,4.9-.57l1.24-.08c.42,0,.83-.09,1.24-.15s.81-.16,1.21-.26a10.31,10.31,0,0,0,1.18-.41c-.16.2-.13.43-.44.48a1.19,1.19,0,0,0,.72.12,3.22,3.22,0,0,0,.83-.23,3,3,0,0,0,.36-.19,2.43,2.43,0,0,0,.29-.21c.16-.15.25-.3.23-.41.51-.06.21.38.57.54a.87.87,0,0,0,.58-.12,3.84,3.84,0,0,0,.54-.35c.35-.25.65-.49.92-.28.09.07-.14.24-.25.32a1.35,1.35,0,0,1,.47-.27c.2-.08.43-.15.63-.25.4-.17.66-.35.34-.58a4.23,4.23,0,0,0,1.68-.66l.36-.22.37-.19a2.48,2.48,0,0,1,.76-.23.89.89,0,0,1,.42-.53,6.77,6.77,0,0,1,.66-.33c.44-.21.81-.42.62-.91.25.47.83.35,1.39,0a4.52,4.52,0,0,0,.76-.69,2.41,2.41,0,0,0,.45-.74c0,.42.75-.17.79.36a3.35,3.35,0,0,0,.79-.91c.15-.29.14-.55-.1-.69a1.88,1.88,0,0,0,.67-.19,1.86,1.86,0,0,0,.5-.37,4.29,4.29,0,0,0,.36-.48c.1-.17.2-.35.28-.52a2.74,2.74,0,0,1,.57-.86,1.06,1.06,0,0,1,1-.23c.64-1.2,1.2-2.35,1.73-3.46s1-2.19,1.46-3.25c.44.3.14.87-.15,1.42s-.58,1.07-.09,1.33a17,17,0,0,0,.77-2.87,10,10,0,0,1,.38-1.29,7,7,0,0,1,.65-1.32c.37-.45.29.48.36.73.08-.27.15-.53.24-.79s.19-.51.29-.75c.2-.5.4-1,.6-1.45s.37-1,.52-1.44a6.63,6.63,0,0,0,.24-1.48c.09,0,.12.27.14.48.09-.37.42-.8-.05-.9v.39a.4.4,0,0,1-.51-.14,2.53,2.53,0,0,1-.32-.68c-.17-.54-.29-1.12-.46-1.21.58.5.79.08,1-.3s.51-.69,1.22,0c0-.27-.16-.63-.49-.66.18-.33.39-.41.66.05a2.1,2.1,0,0,0-.21-1.19,1.31,1.31,0,0,1-.06-1c.22.05.26.31.5.49a5,5,0,0,1-.38-1.09,2.19,2.19,0,0,1,.11-1.29c.13.08.33,0,.28.3a5,5,0,0,0,0-1.28l-.09-.61c0-.2-.09-.4-.12-.59s-.07-.4-.1-.61a6,6,0,0,1,0-.61,3.9,3.9,0,0,1,.17-1.32c1,.63.37-.64,1.26-.71l-.11-.53-.12-.54-.43.41a4.47,4.47,0,0,0-.25-1.31,1.84,1.84,0,0,1-.07-1.2l.36.68-.09-.86c0-.22-.05-.43-.08-.59l0-.27-.15.49c0,.12-.07.25-.1.34l-.05.15a.75.75,0,0,0-.37-.38,1.12,1.12,0,0,0-.34,0c-.19,0-.3-.05-.2-.64,0,.11,0-.11.09-.42a1.75,1.75,0,0,1,.36-1h0a3.25,3.25,0,0,1-.41-.67,1.28,1.28,0,0,1-.08-.86c.26-.2,1,0,1.15-.09a.91.91,0,0,1-.41-.49,6.3,6.3,0,0,1-.22-.76,3.74,3.74,0,0,0-.24-.76,1.06,1.06,0,0,0-.47-.53.89.89,0,0,0,.75,0l-.65-.27c.12-.45.2-.53.57-.53-.06-.63-.32-.48-.53-.37s-.39.19-.3-.59c.07.11.15,0,.28.26a6.29,6.29,0,0,0-.53-2.13,7,7,0,0,1-.58-2c.36-.32.5,0,.62.23s.22.55.52.22a13,13,0,0,0-.67-1.41c-.26-.46-.54-.92-.81-1.37s-.55-.9-.79-1.35a6,6,0,0,1-.34-.67c-.1-.23-.18-.46-.26-.69l0,.18c0,.1,0,.19,0,.19-.62.12-.63-.26-.6-.77a3,3,0,0,0,0-.79.9.9,0,0,0-.39-.65c.19.18.76,0,.61,0-.41-1.3-1.53-2.31-2.93-3.79l.41,0a3.92,3.92,0,0,0-.23-.65c-.11-.22-.24-.44-.38-.67l-.41-.66a7,7,0,0,1-.36-.62c-.41,0-.65-.43-.85.08a2.64,2.64,0,0,0,0-.29,2.51,2.51,0,0,0,0-.27,2.63,2.63,0,0,0-.14-.5,3.07,3.07,0,0,0-.2-.45l-.12-.2-.14-.19a6.07,6.07,0,0,0-1.39-1.24l-.75-.54a6.34,6.34,0,0,1-.68-.56,3,3,0,0,1-.29-.33,2.36,2.36,0,0,1-.26-.36,2.79,2.79,0,0,1-.34-.88c.19.19.66.26.51.11l-.26-.19-.25-.19-.31-.21-.82-.57c-.25.51,0,.42,0,1a1.82,1.82,0,0,1-1.33-.43c.89.31.58-.65.49-1.13-.06.16-.28.22-.37.37,0-.36-.1-.49-.19-.51s-.22.07-.36.17-.59.37-.92-.32l.24-.18-.38-.13-.4-.1a1.49,1.49,0,0,1-.71-.38c.2-.64.61.11,1-.28a1.55,1.55,0,0,0-.58-.21l-.33,0-.33,0c-.44,0-.8-.15-.91-.61.37,0,.76.33,1.13.38a2.19,2.19,0,0,0-.31-.93,5.56,5.56,0,0,0-.48-.46l0,.05-.46-.52-.33-.36-.14-.16s0,.09.09.18l.08.18a1.85,1.85,0,0,1-1,.22,1.66,1.66,0,0,1-.74-.3,4.82,4.82,0,0,0-.75-.4,1.64,1.64,0,0,0-.46-.12,1.88,1.88,0,0,0-.57,0,3.31,3.31,0,0,0,.76-.18c.13,0,.16-.12.14-.19s-.2-.33,0-.61c-.2-.34-.56-.79-.33-.89-.42.09-.59-.14-.82-.35a1,1,0,0,0-1.11-.23c0-.12-.11-.2-.22-.31s-.19-.24,0-.47c-.83-.2,0,.44-.18.67-.75.08-1.32-.46-2-1a6.3,6.3,0,0,0-.53-.37,4.09,4.09,0,0,0-.59-.3,2.7,2.7,0,0,0-.65-.17,2.65,2.65,0,0,0-.74,0,5,5,0,0,0-1,0,8.5,8.5,0,0,0-.83.19c-.26.08-.51.14-.79.2a4,4,0,0,1-.95.08c-.18-.24,0-.41.17-.53a1.82,1.82,0,0,1,.44-.16,2.49,2.49,0,0,0-2-.57c.19-.15.09-.36-.08-.66-.6-.08-.58.72-1.27.22a3,3,0,0,1,.78-.77c-.74,0-1.52.34-2.27.4-.12-.43.54-.51.85-.72h-.71a6.15,6.15,0,0,0-.75.07,1.4,1.4,0,0,0-1.07.51l.24.15.25.15c-.3,0-.08-.56.16-.64.78-.38,1,.38,1,.61l-.53.06a.74.74,0,0,0,.46.62,1.52,1.52,0,0,0,.8,0,4.33,4.33,0,0,1,1.82-.16l-.32.42-.32.43.6-.28.42-.18.19-.08c.16.3.17.87-.35.89.29.32.47.28.63.24s.32-.08.55.26c0,.1,0,.14-.08.16l.76-.08c-.19.16-.08.7-.45.44a1.55,1.55,0,0,0,.78.37,2.88,2.88,0,0,0,.71,0c.44,0,.79-.07.89.37l-.12,0c.88.14,1,0,1.06-.24a.74.74,0,0,1,.18-.38,1.11,1.11,0,0,1,.71-.32l.1,1c0,.49.07,1,.07,1l.44-.6c.16.09.47.29.29.52.82-.18,0-.33.57-.6a1.38,1.38,0,0,0,.59.53c.23.13.5.23.74.34.48.2.84.45.67,1,.53-.34-.56-.76.45-.67-.16.61.1.69.47.72s.82,0,1,.49c-.53.43-1-.22-.6.66a.62.62,0,0,1,.6-.15,1,1,0,0,1,.45.39c.27.35.49.8.83.9.23-.36.59-.24,1,0,.22.12.45.29.69.45a4.9,4.9,0,0,0,.78.42c-.11.09.25.5.72,1a18,18,0,0,1,1.31,1.54l-.12.09a.93.93,0,0,1,1.07,0c.36.19.71.5,1.06.69a1,1,0,0,1-1.07.32l.54.48a1.14,1.14,0,0,1,1,.21l-.57.34a3,3,0,0,0,.62.41l.68.38a2.74,2.74,0,0,1,1.18,1.24c.24-.18.38-.65.6-1s.54-.54,1.16-.17c-.21.26-.59.67-.93.5.12.05.48.12.53.39l-.76,0c.2.6.54-.08.81.31-.36.3,0,.47-.35.66-.11-.05-.12-.42-.37-.43a2.81,2.81,0,0,1,.33.75,1.36,1.36,0,0,1,0,.72c.17-.2.47-.4.76-.15s.27.51.15.65-.29.25-.21.54c.4,0,.51.68,1.07.27.17.23-.06.47-.15.67a1.49,1.49,0,0,1,.46.36l.49.53c.31.33.6.53.75.08l0-.13.07.05h0a3.47,3.47,0,0,1,.5.42,3.92,3.92,0,0,1,.39.52c.11.18.21.37.31.57s.17.4.25.6l.45,1.23a3.68,3.68,0,0,0,.26.57,1.75,1.75,0,0,0,.16.27,2.33,2.33,0,0,0,.17.26l-.21.11a8.89,8.89,0,0,1,.88,1.29,6,6,0,0,0,.43.61,2.28,2.28,0,0,0,.49.45c.12.28-.13.8-.43.79.23.31.39.47.52.69a1.61,1.61,0,0,1,.15.41,3,3,0,0,1,.05.67.76.76,0,0,0-.31-.2.07.07,0,0,0-.09,0s0,0-.14-.46a5.12,5.12,0,0,1,.05.62,3.6,3.6,0,0,0,0,.49,1.32,1.32,0,0,0,.19.45,3.68,3.68,0,0,0,.49.52c-.33-.08-.46.15-.47.45a1.52,1.52,0,0,0,.26.84s.06-.19.11-.38l.11-.38A4.21,4.21,0,0,1,270,176l-.82,0a2.26,2.26,0,0,0,0,.73,2.33,2.33,0,0,0,.19.65,4.19,4.19,0,0,0,.32.59l.36.56a5.45,5.45,0,0,1,.33.56,1.69,1.69,0,0,1,.19.56,1.18,1.18,0,0,1,0,.59,1.21,1.21,0,0,1-.11.3,2,2,0,0,1-.22.32c.31.21.37-.06.44-.35s.13-.58.49-.4a1.42,1.42,0,0,1,0,.35,2.42,2.42,0,0,1-.1.36,4.22,4.22,0,0,1-.34.67c-.23.42-.49.75-.47.88a1,1,0,0,0,.48,1.15,1.92,1.92,0,0,1,.44.46.82.82,0,0,1,.12.32,1,1,0,0,1,0,.43c.27-.18,1-.39,1.31.6a1,1,0,0,1-.21.57.87.87,0,0,1-.42.29.57.57,0,0,1-.74-.27c0-.22.05-.32.15-.32-.12-.29-.25-.66-.54-.29l.28.1a2.15,2.15,0,0,0-.15.45c0,.18-.07.37-.11.53-.09.33-.19.56-.42.42.27.67.46.29.6-.21a4,4,0,0,0-.2,1.47,4.57,4.57,0,0,1-.16,1.5c.17-.18.5-.34.49-.15s-.08.39-.1.53a1.46,1.46,0,0,0,0,.34.43.43,0,0,0,.19.33.78.78,0,0,1,.43.82c-.5.63-1-.35-.76.88-.37.69-.75.06-.95-.25a2.22,2.22,0,0,1,.1.41,1.63,1.63,0,0,1,0,.38,2.26,2.26,0,0,1-.25.67,6,6,0,0,1-.37.56,1.83,1.83,0,0,0-.28.46L269,194a2.18,2.18,0,0,1,0,.89l.61-.22c-.08.16-.13.3-.19.4s-.14.16-.25.13c.14.2.39.18.64.21a.75.75,0,0,1,.68.48c-.19.19-.18.54-.23.84s-.15.56-.53.54c.28-.65.09-.65-.15-.64a.59.59,0,0,1-.35,0c-.09-.07-.14-.2-.11-.49a1.22,1.22,0,0,1-.2.8c-.09,0-.14-.08-.16-.18-1,1.11.68.78.3,2.11a.54.54,0,0,0-.83.32c.17-.51.75-.05.9.53a1.06,1.06,0,0,0-.27.83,1,1,0,0,1,0,.6l.32-.46c.34.31.14.72,0,1.36-.32-.06,0-.62-.23-.45a.62.62,0,0,1,.08.31.57.57,0,0,1-.08.28,2.25,2.25,0,0,1-.45.49c-.35.32-.76.64-.72,1.18-.43.3-.74-.27-1.06,0a1,1,0,0,1-.49,1l-.19.15-.19.19a1.15,1.15,0,0,0-.21.64c.64,0,.55-.15.68.81a.24.24,0,0,1,0-.08l.05-.21.17-.63c.06-.23.12-.45.15-.63l.07-.28,0,.22.08.49.09.72a2.76,2.76,0,0,0,.23-.84,1.61,1.61,0,0,1,.2-.66c.18.71.07.61.61.55a.79.79,0,0,0-.5.41,1.7,1.7,0,0,0-.14.6,2.84,2.84,0,0,1-.1.65.91.91,0,0,1-.43.51l-1.21-.68a1.67,1.67,0,0,0-.59.75,4.29,4.29,0,0,0-.27.92,5.71,5.71,0,0,1-.29,1,2.9,2.9,0,0,1-.65,1l.25-.16.26-.16c.16.25,0,.49-.16.73a2.35,2.35,0,0,0-.53.78c-.34-.32-.69-.14-1.06-.13.14.09,0,.34-.2.64a.83.83,0,0,0,0,1l-.48.1-.48.09a1.45,1.45,0,0,0-.18.16,2.09,2.09,0,0,0-.14.17,1.08,1.08,0,0,0-.17.36,2.73,2.73,0,0,0-.1.76,1.68,1.68,0,0,1-.61,1.46.88.88,0,0,0-.32-.59c-.13-.15-.19-.32,0-.75-.32.3-.66.5-.45.74-.1,0-.17.07-.24.18a3.45,3.45,0,0,0-.22.43,1.92,1.92,0,0,1-.27.44.42.42,0,0,1-.37.15c0,.27.24.7-.18,1a.29.29,0,0,1-.14-.19c.14.18-.45.72.21.87a2.11,2.11,0,0,0-.71,0,2.36,2.36,0,0,0-.64.19,8.21,8.21,0,0,0-1.2.71c-.19.13-.39.25-.59.37a3.62,3.62,0,0,1-.6.28,2.13,2.13,0,0,1-.6.12,1.37,1.37,0,0,1-.29,0,1.71,1.71,0,0,1-.3-.09l-.65.4-.34.19-.35.18a11.79,11.79,0,0,1-1.37.59c0-.15-.06-.22.11-.23a.74.74,0,0,0-.62.2,1.4,1.4,0,0,0-.23.51,1.26,1.26,0,0,1-.27.51,1,1,0,0,1-.76.16c-.87-.56.64-.56.14-.74-.14-.36-.3-.5-.49-.53a.63.63,0,0,0-.3.05,1.88,1.88,0,0,0-.34.14,3.91,3.91,0,0,1-.76.31,1,1,0,0,1-.81-.14l.21-.12a.78.78,0,0,0-.6,0,3.16,3.16,0,0,0-.66.3l-.36.2a2.32,2.32,0,0,1-.39.18,2.15,2.15,0,0,1-.84.19.36.36,0,0,0,0-.23,3.89,3.89,0,0,1-1.57.95,15.22,15.22,0,0,1-1.9.49c.35-.61.52-.33.28-.93-.51.1.19,1-.86,1.16-.35-.31-1.11-.6-1.21-1.25l.49,0h.49a.67.67,0,0,0-.88-.31c-.32.09-.64.27-.9.2l.07-.37a2.86,2.86,0,0,0-.9.2,6.35,6.35,0,0,0-.64.33,2.45,2.45,0,0,1-1.63.37l.15.29c-.93.88-.72-.55-1.64.09l-.22-.94c-.3.1-.82.29-1.41.47a9.22,9.22,0,0,1-1.77.38,10.33,10.33,0,0,1,2.69-1.26,8.66,8.66,0,0,0-1.24,0,1.6,1.6,0,0,0-1.06.36c.24-.08.55-.28.77-.12a3.19,3.19,0,0,1-1.3.71,3.84,3.84,0,0,1-1.6.1c.2-.88-.54-1.07-1.4-1.24a7.72,7.72,0,0,1-1.3-.32,1.41,1.41,0,0,1-.87-.76,5.09,5.09,0,0,1-.77.06,4.77,4.77,0,0,1-.76-.07,6.69,6.69,0,0,1-.75-.16l-.74-.23c-.5-.16-1-.36-1.52-.53-.26-.09-.52-.18-.79-.25s-.55-.14-.83-.2c.11.39.13.58.09.66s-.15.07-.28,0-.59-.11-.69.61c-.56,0-.76-.12-.78-.23l-.7-.63-.47-.44-.21-.2c-.26-.51.58-.16.62-.48-1.1-.44-.31-.73-.94-1.31,0,.54-.6.58-1.18.2l.7.91a1.17,1.17,0,0,1-1.4-.68,1.23,1.23,0,0,0-1.38-.72l.64-.25a13.82,13.82,0,0,1-1.93-.46l-.58-.11a3.64,3.64,0,0,0-.56-.05,2.05,2.05,0,0,0-1,.25c-.07-.22-.09-.66.29-.6a6.66,6.66,0,0,0-1.48-.55l-.81-.2-.8-.2a8.68,8.68,0,0,1-1.49-.5,2.7,2.7,0,0,1-1.06-.83l.31-.22c-.38-.1-.9.23-1.12-.32.09-.11.31-.22.17-.33a3,3,0,0,1-.71-.06,1.18,1.18,0,0,1-.77-.4l.57-.1a3.62,3.62,0,0,0-.53-.45,2.43,2.43,0,0,0-.54-.31,2.88,2.88,0,0,0-.56-.2c-.19-.06-.38-.1-.57-.14a6.9,6.9,0,0,1-2.3-.68,1.31,1.31,0,0,0,.05-1.39,5.21,5.21,0,0,0-.38-.7c-.13-.22-.27-.42-.38-.57l.12-.09c-.2-.2-.38-.39-.58-.56l-.3-.24-.15-.11-.15-.11c-.19-.15-.4-.29-.6-.42l-.32-.19-.3-.19c-.42-.25-.85-.49-1.27-.76l-.63-.43c-.21-.16-.41-.32-.62-.5a2.47,2.47,0,0,0-.07-.66,4.22,4.22,0,0,0-.25-.7,3.78,3.78,0,0,0-.17-.35l-.2-.37c-.13-.25-.28-.5-.44-.76a10.65,10.65,0,0,1-1.46-3.2c0,.37-.74.34-1,.05,0-.27-.33-.49-.53-.7s-.28-.39.17-.55l.06.16a1.14,1.14,0,0,0,.29-.55,1.38,1.38,0,0,0,0-.57,3.4,3.4,0,0,0-.23-.57c-.08-.19-.16-.37-.23-.56l-1.2.35a3.14,3.14,0,0,0,0-1.87,7.62,7.62,0,0,0-.3-.88c-.06-.15-.13-.29-.19-.43s-.13-.29-.19-.43-.26-.56-.36-.83a5.11,5.11,0,0,1-.23-.77,2.33,2.33,0,0,1,0-.36c0-.12,0-.23,0-.34a1.22,1.22,0,0,1,.33-.58,2.27,2.27,0,0,1-.26-.35l-.18-.38a2.86,2.86,0,0,0-.43-.73l.67-.07c0-.33,0-.63,0-.9v-.81c0-.27,0-.54-.06-.85s-.05-.66-.1-1.07l.48.32a.5.5,0,0,0-.08-.31,1.21,1.21,0,0,0-.2-.26,4.26,4.26,0,0,0-.66-.46,4.51,4.51,0,0,1-.68-.47.76.76,0,0,1-.29-.58l.5-.11.51-.1a4.09,4.09,0,0,1,.07-.6l.15-.6.09-.3a2.46,2.46,0,0,1,.09-.29c.07-.2.13-.39.19-.59s.05-.19.08-.29l0-.14,0-.15a3.83,3.83,0,0,0,.1-.59c0-.1,0-.2,0-.3v-.16c0-.05,0-.1,0-.15a3.11,3.11,0,0,0-.1-.65c.14.07.4.19.38.45a6.78,6.78,0,0,1,.28-.72,7,7,0,0,0,.36-.85,1.38,1.38,0,0,0,.07-.76.64.64,0,0,0-.58-.42.36.36,0,0,0,.46-.12,1,1,0,0,0,.12-.28,3.21,3.21,0,0,0,.08-.36c0-.14,0-.28,0-.43l0-.46c0-.3,0-.6,0-.84l.52.41a8.26,8.26,0,0,1-.41-1.11,2.14,2.14,0,0,1,.14-1.13c.21-.17.57.08.25.28a.61.61,0,0,0,.28-.74.81.81,0,0,1,.38-.84l.15.55a2,2,0,0,0,.26-.43.56.56,0,0,0,.06-.3,6.64,6.64,0,0,0-.15-.71,1.39,1.39,0,0,1,.68-.83,1.15,1.15,0,0,1,1-.15,1,1,0,0,1-.15-.65.74.74,0,0,1,.35-.64.4.4,0,0,1,.19.45,2.4,2.4,0,0,0,.7-.68,4.32,4.32,0,0,0,.39-.73,3,3,0,0,1,.37-.63,1.27,1.27,0,0,1,.28-.23,1.21,1.21,0,0,1,.38-.14.53.53,0,0,0,.39.17c-.43.39-.8.76-1.07,1s-.43.4-.42.35c.23.21.51.16.76.2s.44.18.5.73c0-.21.08-.47.13-.74a6.5,6.5,0,0,1,.22-.84,3.42,3.42,0,0,1,.36-.77,1.35,1.35,0,0,1,.55-.49.63.63,0,0,1,.23.08l0,.11a.7.7,0,0,0,.37-.45,2.47,2.47,0,0,0,.69-.34c.2.16.45.05.69-.14s.5-.43.68-.56c-.43-.51.14-.79-.66-.89.09,0,0,.12-.25.33a.47.47,0,0,0-.12.18s0,0,0-.06l-.88.76c.07-.49.2-1,.84-1a10.39,10.39,0,0,1-.11-1.25c1.09.33,2.39.05,2.85.43.48-.55,1.17-1,1.75-1.58a5.19,5.19,0,0,0,.78-.86,2.41,2.41,0,0,0,.43-1c.3-.34.59.1.82.2-.16.22-.42.33-.45.55a3.13,3.13,0,0,1,.57-.48c.23-.16.47-.31.69-.48.44-.32.79-.66.7-1.1.57,0,.51.21.47.37s-.05.24.58-.11l-.07.32a3.41,3.41,0,0,0,1-.1,3.51,3.51,0,0,0,.86-.38,6.64,6.64,0,0,0,.75-.56l.72-.64c.24-.21.49-.42.75-.62s.27-.19.41-.27a3.68,3.68,0,0,1,.45-.21,3.34,3.34,0,0,1,2.22-.12c-.25-.05-.37-.07-.45-.2a10.4,10.4,0,0,0,1.38-.16,13.13,13.13,0,0,0,1.36-.28l.67-.17.68-.17.68-.19.34-.09.34-.09,1.37-.32c.46-.09.92-.15,1.38-.2q.35,0,.69-.06h.7a7.44,7.44,0,0,1,1.4.17c1,.13,1.09-.44,1.67-.92l.3.68,1-.92c.74-.38,1.44,0,2.18.32a2.27,2.27,0,0,0,2.44-.08l-.28-.46c.7.05,2.18-.42,2.1.14.06-.09.2-.51.48-.27l.05.37,1.67-.73c1.34.21-.13,1.48,1.81,1.47.71-.18,2-1.18,1.72-1.41-.29,0-.76-.2-.79-.57l.65-.23c.07-1.1.53-2.24-1.13-2.94l-1.1.73-.39-.52.95-.08c-.56-.47-.89,0-1.26.31a.87.87,0,0,0-.51-.56l-1.06,1.1c-.16-.42.46-.88-.31-1.07-.49.51.56.93-.29,1.3-.57-.47-.44-.89-1.05-.42a.46.46,0,0,1,.26-.61c-.55.38-1.5.24-1.76.84-.61-.58-1.91.29-1.93-.74a3.16,3.16,0,0,1-1.47,1c.43-.66-.06-.64-.65-.62s-1.26.05-1.2-.63a2.1,2.1,0,0,1-1.64.93c-.35.07-.73.13-1.09.21a3.34,3.34,0,0,0-1,.41c.06-.09.17-.29.29-.25-.72,0-1-.3-1.47-.45,0,.93-1,1.31-1.53,2-.51-.37-.42-.66-.26-.95s.41-.6.2-1c.08.36-.27.6-.59.83s-.6.44-.4.72c-.76-.42-.62-.16-1.11-.85.1,1.15-.58.31-1,1.12a1.31,1.31,0,0,1-.76-.57.19.19,0,0,0-.2-.1,1.58,1.58,0,0,0-.49.23c-.29-.11-.23-.33-.08-.51a2.66,2.66,0,0,1,.23-.24A.71.71,0,0,1,212.93,147.41Zm-22.52,12.93h0l.38-.39Zm-1.58,1.51c.21-.17.44-.4.7-.64.21.11.31.33.15.48,0-.1-.14-.08-.3,0S189,161.81,188.83,161.85Zm6.29.52c-.18.27-.34.23-.46.15a3.85,3.85,0,0,0,.37-.4s0-.06,0-.09A1,1,0,0,1,195.12,162.37Z"/><path class="cls-4" d="M195,161.34s0-.07.07-.11h-.24c0,.08,0,.16,0,.24Z"/><path class="cls-4" d="M265,163.29v.05a.28.28,0,0,1,0-.13S265,163.26,265,163.29Z"/><polygon class="cls-4" points="179.19 190.09 179.35 190.05 179.17 189.88 179.19 190.09"/><path class="cls-4" d="M259.1,153.21a.36.36,0,0,0,0-.23S259.08,153.1,259.1,153.21Z"/><path class="cls-4" d="M255.16,150l-.46-.6A3.23,3.23,0,0,0,255.16,150Z"/><path class="cls-4" d="M252,147.56a1.37,1.37,0,0,0-.21.21h0Z"/><path class="cls-4" d="M273.12,202.25a.5.5,0,0,0,0,.16C273.09,202.8,273.13,202.55,273.12,202.25Z"/><path class="cls-4" d="M273.93,183.58a2.94,2.94,0,0,1,.36.58C274.31,183.82,274.31,183.56,273.93,183.58Z"/><path class="cls-4" d="M261.92,220.65h0l-.11.09Z"/><path class="cls-4" d="M274.32,185a1.14,1.14,0,0,0,0-.86A1.67,1.67,0,0,0,274.32,185Z"/><path class="cls-4" d="M235.94,141.58l-.18-.06a.23.23,0,0,1,0,.1Z"/><path class="cls-4" d="M235.72,141.62l-.22,0C235.59,141.68,235.68,141.69,235.72,141.62Z"/><path class="cls-4" d="M235,141.77l.23-.05.16,0h.08C235.34,141.64,235.15,141.6,235,141.77Z"/><path class="cls-4" d="M241,143l.13-.22A.49.49,0,0,0,241,143Z"/><path class="cls-4" d="M242.58,143.35c-.34-.16-.77-.76-1.33-.77l-.09.17c.16-.13.41.09.67.31S242.35,143.49,242.58,143.35Z"/><path class="cls-4" d="M247.5,148.47l-.53-.35-.36-.24-.17-.11c.1.32.22.75-.33.58.29.33.42.46.49.47s.07-.08.08-.2S246.78,148.07,247.5,148.47Z"/><path class="cls-4" d="M250.74,150.62c-.63-.24-.18.32-.29.43C250.93,151.06,251.05,151.06,250.74,150.62Z"/><path class="cls-4" d="M268.61,171.25l-.59.16C268.29,171.85,268.24,171.32,268.61,171.25Z"/><polygon class="cls-4" points="273.25 175.54 273.47 174.93 272.87 174.82 273.25 175.54"/><polygon class="cls-4" points="269.73 179.58 269.61 179.38 269.96 180.17 269.73 179.58"/><path class="cls-4" d="M254,218.93l.47.59a.52.52,0,0,0,0-.56.27.27,0,0,0-.19-.16A.31.31,0,0,0,254,218.93Z"/><path class="cls-4" d="M234.75,222.48a.78.78,0,0,0-1.15-.29C234.06,222.27,234.51,222.57,234.75,222.48Z"/><polygon class="cls-4" points="186.4 193.81 186.76 194.09 186.32 193.47 186.4 193.81"/><path class="cls-9" d="M152.87,204.62c-2,.37-47.32,38.4-110.31,49.75l47.78-83.1Z"/><path class="cls-10" d="M36.92,204.87l34.3-38.42a41.1,41.1,0,0,1,6.83-5.28,20.56,20.56,0,0,1,14-2.74l63.79,10.28-28.46,20.63-31.55-6.66s-4.27-.84-8.41,7.67L74.75,212A20.38,20.38,0,0,0,77,235.77a16.22,16.22,0,0,0,3.57,3.06l-40.8,18.66L32.55,229S28.19,214.82,36.92,204.87Z"/><polygon class="cls-11" points="81.95 350.95 57.55 395.09 -1 395.09 -1 335.36 11.75 312.26 44.34 330.22 81.82 350.88 81.95 350.95"/><polygon class="cls-12" points="81.82 350.88 57.41 395.09 8.53 395.09 44.34 330.22 81.82 350.88"/><path class="cls-13" d="M159.18,167s27-3.2,27.57-2.11-19,22.19-19,22.19l-6.47-8.26Z"/><path class="cls-14" d="M159.32,166.92,41.91,217.66l8.48,19.52L167.85,187s1.09-3.22-1.84-3.81c0,0,1.78-2.82-1.83-3.89,0,0,1.67-2.69-1.8-4.52a2.43,2.43,0,0,0-1.38-3.76S162.48,169.14,159.32,166.92Z"/><path class="cls-10" d="M103.21,232.18c2.65-2.13,12.54-11.34,17.79-22.08l11.21-21.79s4.08-7.15,12.48-6.62a6.44,6.44,0,0,1,1.15.2c2.17.59,9.55,3.13,12.1,10.71a5.77,5.77,0,0,1,.25,2.64c-.26,2-1.3,6-5.05,12.85l-29.95,59.54s-8.22,14.65-16.66,23c-.13.13-.25.26-.37.4-1.15,1.36-7.71,9.09-11.75,12.14A5.81,5.81,0,0,0,92.8,305l-4.89,8.78a.31.31,0,0,1-.42.12L40.66,288l2.86-5.17a5.94,5.94,0,0,0,.61-4.07l-4.48-21.25L77.6,240.17c.88-.4,2-.94,2.84-1.33S85.15,246.67,103.21,232.18Z"/><path class="cls-15" d="M29.06,223.09l16.47-7,8.37,19.62-16.46,7c-5.93,2.53-12.67.19-15-5.2h0C20.16,232.11,23.13,225.63,29.06,223.09Z"/><rect class="cls-16" x="34" y="267.4" width="43.02" height="97.03" rx="9.22" ry="9.22" transform="translate(-247.91 211.91) rotate(-61.11)"/><path class="cls-17" d="M176.2,165.45s10.28-1.24,10.5-.64c.28.75-6.55,8.2-6.55,8.2Z"/></g></svg>